<svg width="190" height="190" xmlns="http://www.w3.org/2000/svg">
    <!-- セルサイズと余白 -->
    <defs>
        <style>
            .cell { fill: none; stroke: black; }

            .mark { stroke: black; stroke-width: 3; stroke-linecap: round; fill: none; }
            .red { fill: none; stroke: black; }
            .blue { fill: none; stroke: black; }
            .highlight-p1 {
                fill: #B2D9FF !important;
            }

            .highlight-p2 {
                fill: #FFD9B2 !important;
            }
        </style>
    </defs>

    <!-- マージン -->
    <!-- 左上に10pxの余白 -->
    <!-- 1行目 -->
    <rect x="10" y="10" rx="10" ry="10" width="50" height="50" class="cell"/>
    <rect x="70" y="10" rx="10" ry="10" width="50" height="50" class="cell highlight-p1"/>
    <!-- × -->
    <!-- <line x1="85" y1="25" x2="105" y2="45" class="mark"/> -->
    <!-- <line x1="105" y1="25" x2="85" y2="45" class="mark"/> -->
    <rect x="130" y="10" rx="10" ry="10" width="50" height="50" class="cell highlight-p1"/>
    <!-- × -->
    <!-- <line x1="145" y1="25" x2="165" y2="45" class="mark"/> -->
    <!-- <line x1="165" y1="25" x2="145" y2="45" class="mark"/> -->

    <!-- 2行目 -->
    <rect x="10" y="70" rx="10" ry="10" width="110" height="50" class="cell highlight-p2"/> <!-- colspan=2 -->
    <rect x="130" y="70" rx="10" ry="10" width="50" height="110" class="cell"/> <!-- rowspan=2 -->
    <!-- ○ -->
    <!-- <circle cx="65" cy="95" r="10" class="mark"/> -->

    <!-- 3行目 -->
    <rect x="10" y="130" rx="10" ry="10" width="50" height="50" class="cell highlight-p2"/>
    <!-- ○ -->
    <!-- <circle cx="35" cy="155" r="10" class="mark"/> -->
    <rect x="70" y="130" rx="10" ry="10" width="50" height="50" class="cell"/>
</svg>
